<svg xmlns="http://www.w3.org/2000/svg" width="27.5%" height="27.5%" preserveAspectRatio="x200Y200 meet" viewBox="0 0 59.541 62"><defs><style>.a{fill:none;stroke:#8F8A9B;stroke-miterlimit:10;stroke-width:2px;}</style></defs><g transform="translate(-882.926 -715)"><path class="a" d="M54.725,35.558a23.163,23.163,0,0,0,0-7.116L59.838,23.5a1.818,1.818,0,0,0,.311-2.216L55.2,12.721a1.818,1.818,0,0,0-2.075-.839l-6.979,2a22.954,22.954,0,0,0-5.965-3.37L38.4,3.377A1.818,1.818,0,0,0,36.64,2H26.752a1.818,1.818,0,0,0-1.764,1.377L23.14,10.771A22.975,22.975,0,0,0,17.687,14l-7.424-2.124a1.818,1.818,0,0,0-2.075.839L3.244,21.282a1.818,1.818,0,0,0,.31,2.218l5.652,5.464a22.509,22.509,0,0,0,0,6.075L3.554,40.5a1.818,1.818,0,0,0-.311,2.216l4.944,8.563a1.818,1.818,0,0,0,2.075.839L17.687,50a22.97,22.97,0,0,0,5.454,3.232l1.848,7.394A1.818,1.818,0,0,0,26.752,62H36.64a1.818,1.818,0,0,0,1.76-1.377L40.182,53.5a22.955,22.955,0,0,0,5.965-3.371l6.979,2a1.818,1.818,0,0,0,2.075-.839l4.944-8.563a1.818,1.818,0,0,0-.311-2.216Z" transform="translate(881.001 714)"/></g></svg>
