<svg xmlns="http://www.w3.org/2000/svg" width="30" height="35.546" viewBox="0 0 30 35.546"><defs><style>.a{fill:#170c3a;}</style></defs><path class="a" d="M35.479,22.294c-.56-.458-1.171-.917-1.732-1.375-.255-.2-.509-.407-.815-.611L31.2,18.882l.713-.56c1.121-.917,2.343-1.885,3.464-2.8a7.258,7.258,0,0,0,.611-.56,2.573,2.573,0,0,0-.611-3.718l-3.209-2.6L30.437,7.218c-.662-.509-1.324-1.07-1.986-1.579-1.528-1.222-3.056-2.5-4.635-3.718a3.527,3.527,0,0,0-4.431-.051c-4.533,3.667-8.251,6.621-11.664,9.372a2.6,2.6,0,0,0,0,4.278c.407.306.764.611,1.171.917a8.867,8.867,0,0,1,.713.611c.611.509,1.222.968,1.834,1.477l.458.357c-.407.357-.866.713-1.273,1.019-.968.764-1.986,1.579-2.954,2.394a2.611,2.611,0,0,0-.051,4.177c.357.306.764.611,1.171.917.153.1.306.255.458.357.917.713,1.834,1.477,2.7,2.19,2.394,1.935,4.89,3.973,7.385,5.908a3.349,3.349,0,0,0,2.19.815A4.072,4.072,0,0,0,23.2,36.25a5.743,5.743,0,0,0,.917-.611.7.7,0,0,1,.2-.153l1.783-1.426c3.107-2.5,6.265-5.042,9.423-7.589a2.732,2.732,0,0,0,1.07-2.088A3.065,3.065,0,0,0,35.479,22.294ZM20.3,12.311a6.666,6.666,0,0,0-1.935,1.375,6.452,6.452,0,0,1-.662.56c-.968.764-1.885,1.528-2.852,2.292-.306.255-.662.509-.968.764a9.37,9.37,0,0,0-1.121-.866c-1.171-.968-2.394-1.935-3.565-2.9-.153-.1-.153-.153-.153-.153s0-.1.2-.255c2.5-2.037,5.042-4.075,7.538-6.112l1.783-1.426c.56-.458,1.121-.917,1.732-1.375ZM9.249,24.179c1.273-1.019,2.6-2.088,3.871-3.107l.764-.611c.407.306.815.662,1.222.968,1.324,1.07,2.7,2.19,4.075,3.26.255.2.56.407.866.611.1.051.153.1.255.153v8.1c-3.667-2.954-7.334-5.908-11.053-8.913-.2-.153-.2-.255-.2-.255S9.045,24.332,9.249,24.179ZM33.9,13.534,32.22,14.909c-.2.2-.458.357-.662.56L29.266,17.3l-2.292-1.834c-.306-.255-.56-.458-.866-.713l-2.292-1.834c-.2-.153-.407-.255-.611-.407a2.215,2.215,0,0,1-.357-.2h0v-8.1l.2.153c.611.458,1.171.917,1.732,1.375,3.005,2.394,6.01,4.839,8.964,7.233l.051.051a.7.7,0,0,0,.2.153c.153.153.153.2.153.2C34.053,13.381,34.053,13.432,33.9,13.534ZM22.288,22.906a1.045,1.045,0,0,1-1.477,0c-1.477-1.222-3.005-2.394-4.482-3.616l-.509-.407,4.075-3.26c.1-.1.2-.153.306-.255a8.709,8.709,0,0,1,.713-.56,1.074,1.074,0,0,1,1.273-.051c1.324,1.07,2.649,2.139,3.973,3.158.407.306.764.611,1.171.917-.153.1-.255.2-.407.306-1.324,1.07-2.7,2.19-4.024,3.26Zm.509,2.547a1.113,1.113,0,0,0,.255-.153,9.554,9.554,0,0,0,.917-.611c1.375-1.07,2.75-2.19,4.075-3.26.407-.306.815-.662,1.222-.968l.509.407c.56.458,1.07.866,1.63,1.324.662.56,1.324,1.07,1.986,1.63l.306.255c.255.2.357.306.357.357s-.1.153-.357.357c-3.514,2.8-6.978,5.654-10.492,8.455L22.8,33.6Z" transform="translate(-6.6 -1.112)"/></svg>